#!OML:ASF I:\golf\golf\golf 2\Subject 1\2002-09-07\Subject1.ASF
:FULLY-SPECIFIED
:DEGREES
428
root 1.72238 16.5395 -3.41055 25.3807 -3.33184 -4.69379
lowerback 26.049 6.92716 -4.29057
upperback 12.2974 7.91605 4.98666
thorax -1.93031 3.54558 5.68219
lowerneck -16.1773 -4.60789 -4.65415
upperneck 15.1664 -4.33406 -4.2547
head 7.34632 -2.72504 -1.11275
rclavicle -6.04305e-014 4.21423e-014
rhumerus 14.3011 21.925 -69.0669
rradius 36.6864
rwrist -15.2654
rhand -22.4876 11.4151
rfingers 7.12502
rthumb 3.9379 -18.5282
lclavicle -6.04305e-014 4.21423e-014
lhumerus -14.6108 -40.1169 93.7838
lradius 69.9145
lwrist 3.84915
lhand -25.5338 18.591
lfingers 7.12502
lthumb 0.996052 48.5684
rfemur -60.6842 -27.2225 36.5056
rtibia 73.8311
rfoot -14.7708 2.98028
rtoes -5.95305
lfemur -65.338 7.28481 -19.9776
ltibia 59.2352
lfoot -12.8907 -6.6543
ltoes -6.2131
429
root 1.71804 16.6031 -3.41133 25.2972 -3.38751 -4.74383
lowerback 25.5438 6.80515 -4.27311
upperback 11.9877 7.79803 4.90775
thorax -2.01233 3.5054 5.64131
lowerneck -16.1351 -4.62596 -4.68075
upperneck 14.8746 -4.43553 -3.88571
head 7.2507 -2.7357 -0.992605
rclavicle 4.77083e-015 9.54166e-015
rhumerus 13.0972 22.1618 -69.6646
rradius 37.0913
rwrist -15.856
rhand -22.2696 11.4742
rfingers 7.12502
rthumb 4.14841 -18.4652
lclavicle 4.77083e-015 9.54166e-015
lhumerus -14.8542 -40.2315 94.0765
lradius 68.8736
lwrist 3.96308
lhand -25.5935 18.6854
lfingers 7.12502
lthumb 0.938347 48.6631
rfemur -60.0023 -26.9181 36.0634
rtibia 73.1537
rfoot -14.506 3.36147
rtoes -6.65277
lfemur -64.6442 7.19698 -19.7804
ltibia 58.2701
lfoot -12.5443 -6.53502
ltoes -6.3592
430
root 1.71731 16.6722 -3.40506 24.9462 -3.53967 -4.75217
lowerback 25.2451 6.72187 -4.30362
upperback 11.7609 7.70672 4.85355
thorax -2.10877 3.47241 5.63551
lowerneck -16.0995 -4.66552 -4.79188
upperneck 14.6115 -4.54405 -3.50683
head 7.16916 -2.75462 -0.857879
rclavicle -6.52014e-014 1.43125e-014
rhumerus 11.9283 22.4161 -70.1773
rradius 37.3978
rwrist -16.2089
rhand -21.9386 11.5955
rfingers 7.12502
rthumb 4.46805 -18.3374
lclavicle -6.52014e-014 1.43125e-014
lhumerus -15.0898 -40.1773 94.4866
lradius 67.8217
lwrist 4.10716
lhand -25.1822 18.7443
lfingers 7.12502
lthumb 1.33558 48.7198
rfemur -58.9182 -26.7066 35.3505
rtibia 72.4459
rfoot -14.4804 3.77101
rtoes -7.83651
lfemur -63.5944 7.09012 -19.6001
ltibia 57.316
lfoot -12.2621 -6.30633
ltoes -6.65905
431
root 1.71073 16.7416 -3.39748 24.5916 -3.79471 -4.77151
lowerback 24.8315 6.66561 -4.53293
upperback 11.5626 7.61287 4.8227
thorax -2.14189 3.43007 5.77852
lowerneck -16.0354 -4.65958 -4.90387
upperneck 14.291 -4.59192 -3.13548
head 7.06427 -2.7447 -0.717513
rclavicle 1.59028e-014 4.77083e-015
rhumerus 10.8094 22.8301 -70.6984
rradius 37.6979
rwrist -16.3978
rhand -21.8297 11.6466
rfingers 7.12502
rthumb 4.57321 -18.2841
lclavicle 1.59028e-014 4.77083e-015
lhumerus -15.373 -39.8309 94.8933
lradius 66.9462
lwrist 4.11236
lhand -24.6951 18.9462
lfingers 7.12502
lthumb 1.80602 48.9184
rfemur -57.7382 -26.326 34.5319
rtibia 71.7404
rfoot -14.6337 4.13571
rtoes -8.53222
lfemur -62.5247 7.08119 -19.4334
ltibia 56.3858
lfoot -12.0228 -6.07636
ltoes -6.93737
432
root 1.70055 16.8013 -3.39347 24.3552 -4.05287 -4.83618
lowerback 24.2963 6.59167 -4.8051
upperback 11.3281 7.49377 4.75264
thorax -2.15048 3.3763 5.91717
lowerneck -16.1116 -4.59188 -4.78251
upperneck 14.0243 -4.58128 -2.86624
head 6.99184 -2.70575 -0.645598
rclavicle 1.35174e-014 1.59028e-015
rhumerus 9.75941 23.2206 -71.3492
rradius 37.9477
rwrist -16.405
rhand -21.7256 11.5063
rfingers 7.12502
rthumb 4.67377 -18.4221
lclavicle 1.35174e-014 1.59028e-015
lhumerus -15.6398 -39.4738 95.0839
lradius 66.1735
lwrist 3.97199
lhand -24.2099 19.2822
lfingers 7.12502
lthumb 2.2746 49.2498
rfemur -56.6793 -25.7665 33.7849
rtibia 71.057
rfoot -14.9973 4.25654
rtoes -9.9668
lfemur -61.6342 7.13098 -19.2454
ltibia 55.5025
lfoot -11.755 -5.86837
ltoes -7.33051
433
root 1.69621 16.8517 -3.39208 24.1314 -4.14289 -4.80294
lowerback 23.8003 6.42379 -4.8577
upperback 11.0873 7.2957 4.58468
thorax -2.13523 3.29217 5.84387
lowerneck -16.4244 -4.53542 -4.46792
upperneck 13.8956 -4.61005 -2.61047
head 6.99916 -2.68019 -0.621169
rclavicle 8.26944e-014 2.70347e-014
rhumerus 8.70663 23.3245 -72.1439
rradius 38.1137
rwrist -16.1954
rhand -21.6407 11.4996
rfingers 7.12502
rthumb 4.75571 -18.4271
lclavicle 8.26944e-014 2.70347e-014
lhumerus -15.7612 -39.3392 95.0299
lradius 65.3491
lwrist 4.01904
lhand -23.4841 19.8446
lfingers 7.12502
lthumb 2.97562 49.8036
rfemur -55.7108 -25.3275 33.0108
rtibia 70.3996
rfoot -15.3194 4.2389
rtoes -11.0943
lfemur -60.8504 7.00794 -19.1347
ltibia 54.6498
lfoot -11.46 -5.68396
ltoes -7.75206
434
root 1.69107 16.9044 -3.38964 23.922 -4.24184 -4.78543
lowerback 23.2028 6.22979 -4.95455
upperback 10.8759 7.06391 4.49225
thorax -2.04568 3.18638 5.89525
lowerneck -16.6189 -4.48719 -4.36812
upperneck 13.6028 -4.62038 -2.29752
head 6.94027 -2.64931 -0.536739
rclavicle -3.18055e-015 1.98785e-014
rhumerus 7.68333 23.6488 -72.7762
rradius 38.3574
rwrist -16.2248
rhand -21.8243 11.7883
rfingers 7.12502
rthumb 4.57844 -18.1422
lclavicle -3.18055e-015 1.98785e-014
lhumerus -15.8535 -39.0908 95.0763
lradius 64.4982
lwrist 4.05407
lhand -20.9158 23.4005
lfingers 7.12502
lthumb 5.45561 53.3103
rfemur -54.7326 -24.856 32.2641
rtibia 69.7369
rfoot -15.502 4.0655
rtoes -11.4783
lfemur -60.1008 6.94615 -19.0473
ltibia 53.8218
lfoot -11.229 -5.55175
ltoes -7.93803
435
root 1.68289 16.958 -3.38434 23.6953 -4.37031 -4.89963
lowerback 22.5794 6.06745 -5.0533
upperback 10.6713 6.87856 4.5163
thorax -1.9536 3.10038 6.06181
lowerneck -16.6713 -4.49868 -4.51322
upperneck 13.1724 -4.67971 -1.88136
head 6.82246 -2.64335 -0.380396
rclavicle -2.3059e-014 2.38542e-014
rhumerus 6.69655 24.1318 -73.2136
rradius 38.6561
rwrist -16.5654
rhand -22.1565 12.1654
rfingers 7.12502
rthumb 4.25767 -17.7718
lclavicle -2.3059e-014 2.38542e-014
lhumerus -15.9644 -38.8327 95.3103
lradius 63.5483
lwrist 4.26291
lhand -22.687 21.6821
lfingers 7.12502
lthumb 3.74539 51.6289
rfemur -53.64 -24.2829 31.6243
rtibia 69.0716
rfoot -15.7851 3.58636
rtoes -12.7536
lfemur -59.3026 6.96488 -18.8193
ltibia 53.0105
lfoot -11.0223 -5.41628
ltoes -7.94463
436
root 1.67247 17.0073 -3.37889 23.3963 -4.41564 -4.95863
lowerback 22.121 5.91648 -5.0613
upperback 10.4013 6.71555 4.48576
thorax -1.99937 3.03373 6.09463
lowerneck -16.7138 -4.55109 -4.48098
upperneck 12.8725 -4.83266 -1.46089
head 6.74237 -2.67494 -0.262976
rclavicle -3.57812e-014 6.36111e-015
rhumerus 5.44747 24.0775 -73.9498
rradius 38.9106
rwrist -16.5079
rhand -21.9913 12.2645
rfingers 7.12502
rthumb 4.41718 -17.6694
lclavicle -3.57812e-014 6.36111e-015
lhumerus -16.1658 -38.9254 95.5532
lradius 62.4441
lwrist 5.19738
lhand -19.858 24.2692
lfingers 7.12502
lthumb 6.47694 54.1502
rfemur -52.4645 -23.786 30.9424
rtibia 68.4445
rfoot -15.9795 2.82732
rtoes -13.5713
lfemur -58.445 6.87214 -18.582
ltibia 52.1979
lfoot -10.7841 -5.28494
ltoes -7.95275
437
root 1.65914 17.0555 -3.37472 23.01 -4.52663 -4.84564
lowerback 21.7392 5.78775 -5.26335
upperback 10.1311 6.53811 4.40659
thorax -2.09095 2.95666 6.18257
lowerneck -16.6966 -4.55496 -4.26044
upperneck 12.5634 -4.9395 -1.20526
head 6.64029 -2.6903 -0.222004
rclavicle -4.77083e-014 -3.18055e-014
rhumerus 4.09889 23.8377 -74.8262
rradius 39.1552
rwrist -16.1596
rhand -21.6319 12.2109
rfingers 7.12502
rthumb 4.76419 -17.7156
lclavicle -4.77083e-014 -3.18055e-014
lhumerus -16.4625 -39.0241 95.8174
lradius 61.4177
lwrist 6.32844
lhand -19.0898 24.5441
lfingers 7.12502
lthumb 7.21851 54.401
rfemur -51.2298 -23.3593 30.0722
rtibia 67.842
rfoot -16.0557 1.91195
rtoes -13.6189
lfemur -57.4989 6.75368 -18.5248
ltibia 51.4052
lfoot -10.5853 -5.13844
ltoes -7.90654
438
root 1.64195 17.1047 -3.37226 22.5539 -4.71339 -4.7336
lowerback 21.3892 5.71768 -5.57225
upperback 9.90176 6.41492 4.35584
thorax -2.1719 2.90158 6.34747
lowerneck -16.7173 -4.57451 -4.19266
upperneck 12.24 -5.03569 -0.897211
head 6.5459 -2.70416 -0.139873
rclavicle 3.81667e-014 -8.74653e-015
rhumerus 2.9298 23.8456 -75.47
rradius 39.4181
rwrist -16.2077
rhand -21.7784 12.3535
rfingers 7.12502
rthumb 4.62273 -17.576
lclavicle 3.81667e-014 -8.74653e-015
lhumerus -16.8366 -38.9846 96.1155
lradius 60.6227
lwrist 7.19002
lhand -19.1175 24.6337
lfingers 7.12502
lthumb 7.19173 54.4915
rfemur -49.8725 -22.824 29.1701
rtibia 67.2149
rfoot -16.2158 0.814999
rtoes -13.9907
lfemur -56.4632 6.72788 -18.4814
ltibia 50.6205
lfoot -10.4053 -5.0152
ltoes -7.87526
439
root 1.62294 17.1515 -3.36803 22.174 -4.79021 -4.91331
lowerback 20.985 5.61025 -5.52707
upperback 9.6531 6.31348 4.33577
thorax -2.22092 2.8653 6.34052
lowerneck -16.769 -4.62398 -4.3127
upperneck 11.9412 -5.16468 -0.32933
head 6.47781 -2.72104 0.05024
rclavicle -5.56597e-015 5.1684e-015
rhumerus 1.8149 23.7884 -76.1191
rradius 39.6575
rwrist -16.396
rhand -22.0436 12.6512
rfingers 7.12502
rthumb 4.36668 -17.2838
lclavicle -5.56597e-015 5.1684e-015
lhumerus -17.1531 -38.9824 96.3236
lradius 59.798
lwrist 8.15467
lhand -18.5194 25.0298
lfingers 7.12502
lthumb 7.76903 54.867
rfemur -48.5143 -22.1734 28.6321
rtibia 66.5469
rfoot -16.3239 -0.408438
rtoes -14.0886
lfemur -55.5215 6.7894 -18.12
ltibia 49.8326
lfoot -10.1768 -4.98727
ltoes -7.92827
440
root 1.60739 17.1984 -3.35859 21.8268 -4.66398 -5.13408
lowerback 20.4981 5.36621 -5.27035
upperback 9.41636 6.08017 4.35416
thorax -2.17994 2.76596 6.2935
lowerneck -16.7358 -4.64569 -4.51203
upperneck 11.5504 -5.24384 0.265671
head 6.36923 -2.71558 0.269441
rclavicle 3.18055e-014 -6.75868e-015
rhumerus 0.75324 23.6737 -76.7723
rradius 39.8171
rwrist -16.312
rhand -22.1306 12.8085
rfingers 7.12502
rthumb 4.28264 -17.1282
lclavicle 3.18055e-014 -6.75868e-015
lhumerus -17.2469 -38.8477 96.4543
lradius 58.8257
lwrist 9.23002
lhand -17.133 25.2899
lfingers 7.12502
lthumb 9.10699 55.0733
rfemur -47.1428 -21.7472 28.2124
rtibia 65.8405
rfoot -16.4203 -1.54649
rtoes -14.3479
lfemur -54.6346 6.73798 -17.7045
ltibia 49.0232
lfoot -9.9085 -5.02409
ltoes -8.00809
